<?xml version="1.0" encoding="UTF-8" standalone="no"?><!DOCTYPE svg PUBLIC "-//W3C//DTD SVG 1.1//EN" "http://www.w3.org/Graphics/SVG/1.1/DTD/svg11.dtd"><svg width="100%" height="100%" viewBox="0 0 67 67" version="1.1" xmlns="http://www.w3.org/2000/svg" xmlns:xlink="http://www.w3.org/1999/xlink" xml:space="preserve" xmlns:serif="http://www.serif.com/" style="fill-rule:evenodd;clip-rule:evenodd;stroke-miterlimit:10;"><clipPath id="_clip1"><rect x="0" y="0" width="66.667" height="66.667"/></clipPath><g clip-path="url(#_clip1)"><g id="Layer-1" serif:id="Layer 1"><g opacity="0.5"><path d="M61.75,49.74l-28.417,16.406l-28.417,-16.406l0,-32.813l28.417,-16.406l28.417,16.406l0,32.813Z" style="fill:#fff;fill-rule:nonzero;stroke:#0c5678;stroke-width:0.65px;"/></g><path d="M33.333,25.539l-12.968,-7.487l12.968,-7.487l-0,14.974Z" style="fill:#0eacd6;fill-rule:nonzero;"/><path d="M33.333,40.515l-12.968,-7.489l12.968,-7.487l-0,14.976Z" style="fill:#1ab0d2;fill-rule:nonzero;"/><path d="M33.333,55.488l-12.968,-7.487l12.968,-7.486l-0,14.973Z" style="fill:url(#_Linear2);fill-rule:nonzero;"/><path d="M46.302,48.001l-12.969,-7.486l12.969,-7.489l-0,14.975Z" style="fill:#0cafcc;fill-rule:nonzero;"/><path d="M20.365,18.052l12.968,7.487l-12.968,7.487l0,-14.974Z" style="fill:#0b7f9c;fill-rule:nonzero;"/><path d="M20.365,33.026l12.968,7.489l-12.968,7.486l0,-14.975Z" style="fill:url(#_Linear3);fill-rule:nonzero;"/><path d="M33.333,25.539l12.969,7.487l-12.969,7.489l-0,-14.976Z" style="fill:#38c6f4;fill-rule:nonzero;"/><path d="M33.333,40.515l12.969,7.486l-12.969,7.487l-0,-14.973Z" style="fill:#01576c;fill-rule:nonzero;"/></g></g><defs><linearGradient id="_Linear2" x1="0" y1="0" x2="1" y2="0" gradientUnits="userSpaceOnUse" gradientTransform="matrix(-6.48364,11.23,-11.23,-6.48364,33.3326,40.5145)"><stop offset="0" style="stop-color:#0c5678;stop-opacity:1"/><stop offset="1" style="stop-color:#34c4e6;stop-opacity:1"/></linearGradient><linearGradient id="_Linear3" x1="0" y1="0" x2="1" y2="0" gradientUnits="userSpaceOnUse" gradientTransform="matrix(12.9677,0,0,12.9677,20.3651,40.5137)"><stop offset="0" style="stop-color:#0c5678;stop-opacity:1"/><stop offset="1" style="stop-color:#34c4e6;stop-opacity:1"/></linearGradient></defs></svg>